<?xml version="1.0" encoding="utf-8"?>
<!-- Generator: Adobe Illustrator 18.1.0, SVG Export Plug-In . SVG Version: 6.00 Build 0)  -->
<svg version="1.1" id="Layer_1" xmlns="http://www.w3.org/2000/svg" xmlns:xlink="http://www.w3.org/1999/xlink" x="0px" y="0px"
	 viewBox="0 0 1000 1000" enable-background="new 0 0 1000 1000" xml:space="preserve">
<g>
	<g>
		<g>
			<path fill="#939292" d="M239.3,806.7L270,786l0,0l-0.7,0.7C259.3,793.3,249.3,800,239.3,806.7z"/>
		</g>
	</g>
	<g>
		<g>
			<path fill="#F6A122" d="M946,161.3L819.3,200L680,305.3L425.3,502l97.3,55.3c0,0-0.7,0.7-1.3,1.3l1.3,0.7
				c0,0-275.3,222.7-431.3,345.3l60.7-40c25.3-17.3,52-35.3,79.3-53.3c2.7-2,5.3-3.3,8-5.3c10-6.7,20-13.3,30-20l0.7-0.7
				C426,682.7,587.3,580,587.3,580l-118-67.3l316-232.7l0,0c39.3,58.7,62.7,129.3,62.7,205.3c0,202.7-165.3,367.3-368,367.3
				c-48.7,0-94.7-9.3-137.3-26.7L300,854c54,26.7,115.3,41.3,180,41.3c226.7,0,410.7-184,410.7-410c0-85.3-26-164.7-71.3-230.7
				L946,161.3z"/>
		</g>
	</g>
	<g>
		<g>
			<path fill="#FBE53C" d="M425.3,502l-1.3-0.7l256-198L818.7,198l-33.3,10L740,222L410.7,323.3l-193.3,212L400,618
				c0,0-78.7,65.3-163.3,141.3l0,0C160.7,692,112,594,112,484c0-202.7,165.3-367.3,368-367.3c66.7,0,129.3,18,183.3,49.3l53.3-16
				C650,102.7,568.7,74.7,480,74.7c-226.7,0-410.7,184-410.7,410c0,120.7,52,228.7,135.3,304c-50,45.3-100,92-134,128.7l20-13.3
				c149.3-118.7,410-328.7,430-344.7c0.7-0.7,1.3-1.3,1.3-1.3L425.3,502z"/>
		</g>
	</g>
</g>
</svg>
